<svg width="128" height="128" viewBox="0 0 128 128" fill="none" xmlns="http://www.w3.org/2000/svg">
<g clip-path="url(#clip0_2_2)">
<rect x="8.24516" y="63.7548" width="78.8493" height="78.8493" rx="12" transform="rotate(-45 8.24516 63.7548)" fill="#996ECF"/>
<path d="M62.6579 86.184C65.0099 86.568 67.3139 87.144 69.5699 87.912V90H49.8419V87.912C51.7619 87.144 53.7299 86.568 55.7459 86.184V43.488C54.7859 43.296 53.8019 43.056 52.7939 42.768C51.7859 42.432 50.8019 42.072 49.8419 41.688V39.6H83.5379C83.5379 40.56 83.5139 41.664 83.4659 42.912C83.4179 44.16 83.3699 45.456 83.3219 46.8C83.2739 48.144 83.2019 49.464 83.1059 50.76C83.0099 52.008 82.8899 53.136 82.7459 54.144H80.8739L77.1299 43.344H62.6579V86.184Z" fill="black"/>
</g>
<defs>
<clipPath id="clip0_2_2">
<rect width="128" height="128" fill="white"/>
</clipPath>
</defs>
</svg>
